<svg aria-hidden="true" class='h-[50px] lg:h-[75px] w-auto [&amp;_#logo-text]:fill-current lg:[#header[data-nav-transparent="true"]_&amp;_#logo-text]:fill-current' data-icon="logo" fill="none" height="75" id="header-logo" viewBox="0 0 176 75" width="176" xmlns="http://www.w3.org/2000/svg">
<g id="logo-mark">
<path d="M30.1978 74.4761H0V0.368042H28.1696C28.1696 0.368042 19.0686 14.1981 19.0686 37.6061C19.0686 59.8233 30.1761 74.4587 30.1761 74.4587" fill="#002041"></path>
<path d="M37.99 0.368042H11.2375V74.4804H37.99V0.368042Z" fill="url(#paint0_radial_85_191)"></path>
<mask height="75" id="mask0_85_191" maskUnits="userSpaceOnUse" style="mask-type:alpha" width="61" x="24" y="0">
<path clip-rule="evenodd" d="M84.5088 0.368042H34.4969C27.3669 11.5123 23.7644 24.5449 24.1595 37.7656C24.5545 50.9863 28.9288 63.781 36.7115 74.4804H84.5088V0.368042Z" fill="#00A4E1" fill-rule="evenodd"></path>
</mask>
<g mask="url(#mask0_85_191)">
<path d="M84.6128 0.367737H27.3635V74.4801H84.6128V0.367737Z" fill="url(#paint1_radial_85_191)"></path>
</g>
<path d="M82.9789 63.4C83.0393 63.2165 83.0842 63.0282 83.1132 62.8371C79.7431 62.0211 76.559 60.5722 73.7306 58.5677C73.5413 58.797 73.3785 59.0469 73.2452 59.3125C73.1695 59.3447 73.0889 59.3637 73.0068 59.3688C75.803 61.3728 78.9392 62.8545 82.2638 63.7421C82.5085 63.6418 82.7472 63.5276 82.9789 63.4Z" fill="#47B3E6"></path>
<path d="M72.6554 58.6803C72.9025 58.5071 73.1495 58.3123 73.2492 58.2473C73.1928 58.204 73.0368 58.0525 72.9848 58.0092C72.8028 57.9875 72.4994 58.0092 71.6847 57.8879C71.6413 57.784 71.585 57.6411 71.546 57.5329C71.4414 57.5291 71.3378 57.5531 71.2456 57.6026C71.1535 57.652 71.0762 57.7251 71.0216 57.8143C71.6283 58.3339 72.2524 58.8102 72.8938 59.2735C72.8375 59.1306 72.7855 59.0267 72.6641 58.6933" fill="#47B3E6"></path>
<path d="M63.104 25.2828C63.104 25.2525 63.039 25.2049 63.026 25.1832C62.9219 25.4344 62.8223 25.6898 62.7269 25.9453C62.961 25.7981 63.195 25.6682 63.1993 25.6639C63.1545 25.5405 63.1225 25.4128 63.104 25.2828Z" fill="#47B3E6"></path>
<path d="M65.2665 20.7796C64.7372 21.6299 64.2526 22.5072 63.8147 23.4079L64.2481 23.5205C64.4084 23.3819 64.5038 23.3126 64.5514 23.278C64.6294 23.4901 64.7161 23.6893 64.7898 23.8928C65.1741 23.1019 65.5988 22.3268 66.0639 21.5676C65.9166 21.2039 65.8212 21.022 65.6782 20.7319L65.2708 20.7796" fill="#47B3E6"></path>
<path d="M57.882 32.224L57.9037 32.1677L58.6447 31.8732V31.791C58.272 31.479 57.9554 31.1055 57.7086 30.6868C57.6133 31.2627 57.5396 31.8429 57.4746 32.4188C57.6176 32.3669 57.817 32.4188 57.869 32.2153" fill="#47B3E6"></path>
<path d="M70.6144 59.2043C70.324 58.8666 70.2807 58.6241 69.9557 58.3383C69.6804 58.4093 69.412 58.5049 69.1539 58.6241C73.4945 62.5243 78.8561 65.1104 84.6125 66.0804V64.9805C79.538 64.0924 74.7815 61.902 70.8094 58.6241C70.7896 58.8298 70.7229 59.0283 70.6144 59.2043Z" fill="#47B3E6"></path>
<path d="M83.8196 63.0103C83.9184 63.3558 83.9866 63.7093 84.0233 64.0668C83.8865 63.9366 83.7418 63.8151 83.5899 63.7031C83.4295 63.8286 83.4165 63.833 83.2258 63.9975C83.6375 64.0928 84.1749 64.1707 84.5953 64.2443V63.1402C84.37 63.0969 84.0276 63.0579 83.8022 63.0103" fill="#47B3E6"></path>
<path d="M59.3293 28.0022C59.3857 27.8636 59.4507 27.7251 59.481 27.6688C59.715 26.8028 59.9924 25.9368 60.3001 25.1097C60.2592 24.907 60.158 24.7214 60.0097 24.5771C59.9057 24.6551 59.5764 24.9409 59.4637 25.0448C59.3966 24.9691 59.3258 24.8968 59.2513 24.8283C58.5682 26.7013 58.0604 28.6335 57.7345 30.6002C57.8558 30.3967 57.8732 30.375 57.9729 30.1672C58.0379 30.1196 58.2242 30.0373 58.4539 29.9247C58.4106 29.7342 58.3586 29.5567 58.3152 29.3272C58.3802 29.2232 58.8309 28.7946 59.0346 28.5651C58.8714 28.2126 58.7787 27.8316 58.7616 27.4436C58.9236 27.6505 59.1149 27.8328 59.3293 27.9849" fill="#47B3E6"></path>
<path d="M56.5037 38.1949C56.365 38.0131 56.2264 37.8226 55.988 37.5498C55.9378 37.3945 55.9015 37.2351 55.8797 37.0735C55.7868 36.8813 55.6826 36.6948 55.5676 36.5149C55.577 38.0904 55.7103 39.6627 55.9663 41.2173C56.048 41.138 56.1527 41.0865 56.2654 41.0701C56.2817 40.8422 56.358 40.6226 56.4864 40.4335C56.4123 40.2207 56.3255 40.0125 56.2264 39.81C56.2697 39.7321 56.5644 39.6065 56.6251 39.5589C56.5947 39.2904 56.5687 39.0263 56.5471 38.7578C56.4426 38.6857 56.3541 38.5928 56.287 38.485C56.3502 38.3819 56.4228 38.2848 56.5037 38.1949Z" fill="#47B3E6"></path>
<path d="M60.5905 27.4132C60.4815 27.4713 60.3771 27.5379 60.2785 27.6124C60.2135 27.8506 60.1442 28.0887 60.0835 28.3269C60.1371 28.4153 60.2154 28.486 60.3089 28.5304C60.3062 28.6472 60.3315 28.763 60.3825 28.8681L60.6686 28.7425C60.7812 28.4394 60.8332 28.0887 61.1019 27.9415C61.1006 27.7858 61.1398 27.6325 61.2158 27.4966C61.2918 27.3607 61.4019 27.2469 61.5353 27.1664C61.8242 26.2369 62.1608 25.319 62.5451 24.4125C62.5451 24.4125 62.1594 24.1657 61.934 24.0445C61.777 24.075 61.6221 24.1155 61.4703 24.1657C61.44 24.2437 61.4053 24.3216 61.375 24.3952L61.7693 24.5598C61.8863 24.6853 61.9254 24.7416 62.2027 25.0837C62.2027 25.0837 61.7997 25.7678 61.609 26.0926C61.5873 26.0926 61.4053 26.032 61.2493 25.941C61.1266 25.8689 60.9992 25.8053 60.8679 25.7505C60.7856 25.9757 60.7206 26.1835 60.6469 26.4303C60.6036 26.7551 60.6166 27.2184 60.5949 27.4132" fill="#47B3E6"></path>
<path d="M63.1865 22.4512C62.9755 22.8528 62.7366 23.2391 62.4714 23.6073C62.5639 23.7059 62.6782 23.7815 62.8051 23.8281C63.2687 22.7988 63.7911 21.7969 64.3696 20.8274C64.0793 20.3598 64.0273 20.2905 63.9883 20.2082C64.0778 19.9109 64.143 19.6068 64.1833 19.2989C64.1754 19.256 64.1542 19.2166 64.1226 19.1863C63.8019 19.667 63.5029 20.1606 63.2168 20.6542C63.2168 20.6802 63.2169 22.0312 63.1865 22.4512Z" fill="#47B3E6"></path>
<path d="M60.3477 23.5813C60.3477 23.5813 60.183 23.1483 59.9143 23.105C59.7583 23.473 59.6023 23.8411 59.481 24.2135C59.546 24.2135 59.7063 24.2135 59.7366 24.2135C59.9604 24.0248 60.1664 23.8161 60.352 23.5899" fill="#47B3E6"></path>
<path d="M60.2698 22.5982L60.5601 22.5029C60.7891 22.6101 61.0235 22.7055 61.2622 22.7887C61.2886 22.7406 61.3239 22.698 61.3662 22.6631C61.3662 22.4683 61.3662 22.3427 61.3402 22.1955C61.3142 22.0483 61.1669 21.572 61.0975 21.4161C61.4182 21.3165 61.6479 21.2559 62.0596 21.113C62.298 20.68 62.2503 20.1171 62.766 19.8486C62.8238 19.8142 62.8728 19.7667 62.9091 19.7101C63.2124 19.2078 63.5331 18.7098 63.8668 18.2249L63.7021 18.1166C63.7311 17.9254 63.7169 17.7302 63.6606 17.5452C63.6044 17.3601 63.5075 17.19 63.3771 17.0471C62.1318 18.7678 61.0618 20.6085 60.1831 22.5419C60.1831 22.5635 60.2221 22.5635 60.2698 22.5982Z" fill="#47B3E6"></path>
<path d="M83.2475 61.4859C83.0613 61.1507 82.7966 60.8654 82.4761 60.6545C81.5595 60.3863 80.6582 60.0682 79.7762 59.7019C79.6245 59.8058 79.4815 59.9141 79.3775 60.0007C79.3385 60.2432 79.3428 60.3428 79.2951 60.529C79.0682 60.5423 78.8409 60.5083 78.6277 60.4294C78.476 60.0786 78.5237 59.6283 78.3504 59.3339C78.062 59.36 77.7719 59.36 77.4836 59.3339L77.1672 59.65C76.7523 59.4046 76.3793 59.0947 76.0621 58.732C75.8385 58.7894 75.6111 58.8314 75.3817 58.8576C77.8166 60.3771 80.4796 61.4969 83.2692 62.1744C83.3104 61.9365 83.3104 61.6934 83.2692 61.4556" fill="#47B3E6"></path>
<path d="M66.5017 22.529C66.4795 22.4219 66.4505 22.3163 66.4151 22.2129C66.2461 22.4943 66.0857 22.7801 65.9297 23.0789C66.4584 22.6026 66.5147 22.7022 66.5017 22.542" fill="#47B3E6"></path>
<path d="M53.9338 52.7049C54.1895 53.2548 54.4626 53.7961 54.7443 54.333C54.7488 53.9464 54.7256 53.5601 54.6749 53.1769C54.4594 52.9749 54.2081 52.8149 53.9338 52.7049Z" fill="#47B3E6"></path>
<path d="M56.7162 60.4122C56.9849 60.633 57.1496 60.7413 57.6176 61.105H57.739C57.4573 60.7456 57.1756 60.3819 56.9069 60.0095L56.7162 60.4209" fill="#47B3E6"></path>
<path d="M58.6748 23.9624C58.2497 24.4415 57.8601 24.9509 57.509 25.4866C57.4935 25.7447 57.4935 26.0035 57.509 26.2616C57.3616 26.3959 57.0756 26.5647 56.8632 26.6946C56.7939 26.9414 56.7159 27.1882 56.6552 27.4394C56.0532 29.7667 55.7016 32.1516 55.6064 34.5536C55.7954 34.8109 55.9552 35.0882 56.0832 35.3806C56.1698 35.7313 56.0095 36.0951 56.1525 36.4415C56.2467 36.6386 56.3508 36.8308 56.4645 37.0174C56.4645 36.4934 56.4429 35.9652 56.4645 35.4369C56.4614 35.3806 56.4497 35.3251 56.4299 35.2724C56.3949 35.1426 56.3818 35.008 56.3909 34.874C56.4109 34.7911 56.4415 34.711 56.4819 34.6358C56.6198 30.9732 57.3713 27.3595 58.7051 23.9451" fill="#47B3E6"></path>
<path d="M58.8005 59.8622C58.8005 59.8622 58.8005 59.5808 58.7745 59.4552C58.2747 58.797 57.7979 58.1259 57.3443 57.4417C57.2924 57.4375 57.2402 57.4375 57.1883 57.4417C56.9846 57.485 56.807 57.5197 56.6466 57.5457C57.994 59.6077 59.5304 61.5399 61.2361 63.3176C61.2361 63.2959 61.4918 63.2396 61.5048 63.218C61.6088 63.3912 61.6391 63.3998 61.8168 63.7246C61.9382 63.7246 62.2502 63.6726 62.4669 63.638C62.1028 63.2829 61.7475 62.9192 61.4008 62.5468C60.4332 61.7487 59.5607 60.8421 58.8005 59.8449" fill="#47B3E6"></path>
<path d="M58.1418 9.27484C58.0421 9.39608 57.9338 9.51299 57.8341 9.63423C57.9402 9.65033 58.0475 9.65757 58.1548 9.65588C58.1654 9.52909 58.1654 9.40163 58.1548 9.27484" fill="#47B3E6"></path>
<path d="M69.5659 2.01332L69.3275 2.15621C69.4402 2.15621 69.6352 2.34673 69.7609 2.36838C69.8042 2.36838 70.1943 2.06528 70.1119 1.88342C70.0079 1.97868 69.9732 2.02198 69.8476 2.13889C69.7453 2.11913 69.6489 2.07617 69.5659 2.01332Z" fill="#47B3E6"></path>
<path d="M56.7421 59.7759C55.2785 57.7501 54.0034 55.5949 52.9327 53.3372C52.7106 53.3532 52.4967 53.4279 52.313 53.5537C52.859 54.7083 53.4614 55.8442 54.1202 56.9614C54.8006 58.1132 55.533 59.2173 56.3087 60.2868L56.4864 60.3171C56.4517 60.1266 56.4344 60.0703 56.4127 59.9577C56.5188 59.8906 56.6288 59.8298 56.7421 59.7759Z" fill="#47B3E6"></path>
<path d="M50.0333 46.5565C50.1595 46.5334 50.2868 46.5175 50.4147 46.5089C48.8775 40.8354 48.5965 34.8953 49.5913 29.1022C49.3963 29.2321 49.3183 29.2841 49.1579 29.3707C49.0621 29.3685 48.9665 29.3598 48.8719 29.3447C47.9417 35.015 48.2164 40.8174 49.678 46.3746C49.797 46.4226 49.9104 46.4835 50.016 46.5565" fill="#47B3E6"></path>
<path d="M54.2804 15.9473C55.0675 14.5637 55.9358 13.2277 56.8807 11.9464C56.8504 11.7949 56.8157 11.639 56.794 11.4874C56.742 11.1064 57.1234 10.8639 57.1537 10.5132C55.9129 12.0972 54.7903 13.7702 53.795 15.5187C53.9802 15.6412 54.1492 15.7867 54.2978 15.9517" fill="#47B3E6"></path>
<path d="M51.5114 21.9187C51.5114 21.8104 51.5114 21.5809 51.5114 20.9401C51.5114 20.7669 51.4508 20.5937 51.4118 20.4205C50.7194 22.1285 50.1403 23.8801 49.6782 25.6641C49.5526 26.1491 49.4399 26.6384 49.3315 27.1233C49.4895 27.3206 49.5953 27.5543 49.6392 27.8031C49.6392 27.959 49.6782 28.0759 49.7996 28.0802C49.9469 27.3268 50.116 26.5777 50.311 25.8243C50.6533 24.495 51.0607 23.1917 51.5244 21.9273" fill="#47B3E6"></path>
<path d="M56.4475 49.3318C56.6914 49.198 56.8973 49.0042 57.0455 48.7689C56.6512 47.7773 56.3045 46.7641 56.0054 45.7379C55.4984 45.1447 55.3987 44.361 55.3033 42.9277C55.2643 42.7372 55.1863 42.3085 55.117 41.9102C54.4707 38.1612 54.4444 34.3317 55.039 30.5742C54.9267 30.8141 54.7902 31.0418 54.6316 31.254C54.4432 31.3215 54.2487 31.3708 54.0509 31.4013C53.3789 36.5489 53.8449 41.7812 55.416 46.7295C55.585 46.855 55.8494 47.0109 56.2134 47.2447C56.2134 47.2447 55.9491 48.587 56.4691 49.3318" fill="#47B3E6"></path>
<path d="M57.0847 53.2333C56.894 52.8782 56.7163 52.5188 56.5386 52.1594C56.5386 52.1594 56.4953 52.3759 56.4909 52.4149L56.2179 52.4539C56.2397 52.6023 56.279 52.7476 56.3349 52.8869C56.4476 52.9518 56.8073 53.1207 57.0847 53.2376" fill="#47B3E6"></path>
<path d="M60.673 53.6228C60.9271 53.6221 61.1797 53.5842 61.4228 53.5102C61.4228 53.5102 61.4228 53.5102 61.4574 53.4843C61.0241 52.7568 60.5907 52.0164 60.1833 51.2586C60.0836 51.2153 59.8843 51.1244 59.7499 51.0465C59.6156 50.9685 59.2169 50.9555 59.0565 50.9209C59.409 51.6397 59.7831 52.3426 60.179 53.0296C60.3203 52.993 60.4672 52.9827 60.6123 52.9993C60.6427 53.1422 60.6383 53.2764 60.6687 53.6228" fill="#47B3E6"></path>
<path d="M64.14 59.9791C64.1183 60.0094 64.101 60.0354 64.075 60.0657C64.2262 60.4539 64.3267 60.8599 64.374 61.2738C64.3349 61.3054 64.3 61.3418 64.27 61.382C68.809 65.944 74.4999 69.1925 80.7383 70.7825C82.0155 71.1023 83.3088 71.3538 84.6127 71.5359V70.6699C83.434 70.4924 82.1338 70.2369 80.955 69.9555C74.5118 68.3018 68.677 64.84 64.14 59.9791Z" fill="#47B3E6"></path>
<path d="M67.5115 60.724C67.159 60.822 66.782 60.7768 66.4627 60.5984L66.194 59.4812C65.8906 59.1781 65.5916 58.8664 65.3012 58.546C65.1603 58.8044 64.9597 59.0255 64.7162 59.1911C69.1467 63.9773 74.8646 67.3855 81.1846 69.0073C82.2853 69.293 83.5031 69.5139 84.6039 69.6871V68.8211C83.5768 68.6608 82.437 68.4487 81.4013 68.1845C76.2353 66.8577 71.467 64.3026 67.5028 60.7369" fill="#47B3E6"></path>
<path d="M67.2904 8.05818L67.4941 8.09715C67.6935 7.89797 67.6674 7.69013 67.8148 7.47363C67.6111 7.62518 67.4118 7.7724 67.2124 7.93261C67.2164 7.95768 67.2253 7.9817 67.2387 8.00326C67.2521 8.02483 67.2697 8.0435 67.2904 8.05818Z" fill="#47B3E6"></path>
<path d="M62.7357 61.1613C62.5715 61.2146 62.4108 61.2782 62.2546 61.3518C62.2546 61.5423 62.2546 61.7458 62.2286 61.8887C62.48 62.1528 62.7357 62.417 62.9914 62.6724C63.6044 63.0205 64.1847 63.4234 64.7249 63.8762C64.7249 63.9065 64.6426 64.1836 64.6339 64.2052C69.1114 68.1884 74.4769 71.0447 80.2832 72.5362C81.7116 72.8917 83.1583 73.1692 84.617 73.3675V72.5015C83.2327 72.3119 81.8598 72.0473 80.5042 71.7091C73.693 69.9673 67.5257 66.3078 62.7357 61.1656" fill="#47B3E6"></path>
<path d="M68.5299 7.08401C68.92 6.87184 68.92 6.87184 69.0196 7.30917C69.0413 7.40443 69.0673 7.49969 69.0933 7.59495L69.4703 7.31783V6.28729C69.102 6.53843 68.7336 6.7939 68.3739 7.05803C68.3926 7.08134 68.4187 7.0975 68.4479 7.10381C68.4771 7.11012 68.5076 7.10619 68.5342 7.09267" fill="#47B3E6"></path>
<path d="M69.6394 4.12203C69.5577 4.11731 69.4757 4.12609 69.3968 4.14801C68.3133 4.84081 67.2631 5.58701 66.2461 6.38662C66.2607 6.46099 66.2709 6.53619 66.2764 6.61178C66.6015 6.68106 66.6015 6.68106 66.3241 7.29592C66.2964 7.35494 66.2775 7.41766 66.2678 7.48211C67.2828 6.6496 68.3418 5.87198 69.4401 5.15257L69.2754 5.0703C69.1343 5.11492 68.9892 5.14538 68.842 5.16123C68.8177 5.04208 68.8298 4.91837 68.8767 4.80617C68.9547 4.80617 69.1324 4.78019 69.2797 4.75421C69.4082 4.5508 69.524 4.33967 69.6264 4.12203" fill="#47B3E6"></path>
<path d="M53.8817 1.00888C53.8929 1.03243 53.9017 1.0571 53.9077 1.08249L54.0724 0.922283C54.195 0.747053 54.3023 0.561625 54.3931 0.368042H54.172C53.938 0.601862 53.6997 0.831352 53.47 1.0695C53.6126 1.03794 53.7575 1.01767 53.9033 1.00888" fill="#47B3E6"></path>
<path d="M45.2098 21.7497C45.2364 21.8366 45.2743 21.9195 45.3225 21.9965C45.3832 21.9056 45.4439 21.8666 45.5565 21.6978C45.5667 21.4784 45.6002 21.2606 45.6562 21.0483C45.7309 21.1051 45.7904 21.1795 45.8296 21.2648C46.3382 19.7416 46.9255 18.2457 47.5891 16.7832C47.5812 16.6363 47.6018 16.4893 47.6498 16.3502L47.4807 16.2636C47.4166 16.3272 47.3436 16.3811 47.2641 16.4238C46.4728 18.1489 45.7868 19.9202 45.2098 21.7281" fill="#47B3E6"></path>
<path d="M56.8158 0.368042C56.4041 0.749082 55.9924 1.13878 55.5937 1.53281C55.4933 1.82836 55.3686 2.11511 55.2209 2.39015C55.8927 1.69735 56.5948 1.03486 57.3098 0.385362L56.8158 0.368042Z" fill="#47B3E6"></path>
<path d="M43.6065 8.4521C43.6065 8.38715 43.6065 8.34385 43.6065 8.23127C43.6065 8.11869 43.6065 8.08838 43.5675 8.0191C40.8363 12.53 38.7833 17.4174 37.4742 22.5246C37.1361 23.8352 36.8472 25.1515 36.6074 26.4736C36.6922 26.4683 36.7743 26.4415 36.8458 26.3956C37.0942 25.114 37.3803 23.8438 37.7039 22.5852C38.9824 17.6156 40.9703 12.8557 43.6065 8.4521Z" fill="#47B3E6"></path>
<path d="M44.3605 10.786C45.3686 8.9787 46.4844 7.23346 47.7018 5.55971C47.6286 5.52919 47.5511 5.51021 47.4721 5.50342C46.3636 7.03339 45.3407 8.62349 44.4081 10.2664C44.4081 10.4136 44.3821 10.5912 44.3605 10.7904" fill="#47B3E6"></path>
<path d="M66.9915 72.2116C67.0044 72.3268 67.0246 72.4411 67.0521 72.5537C68.1737 73.2554 69.331 73.8985 70.5192 74.4806H71.4813C69.9919 73.7709 68.5449 72.9757 67.1475 72.0991L66.9915 72.2116Z" fill="#47B3E6"></path>
<path d="M59.9621 2.97483C59.9756 2.80543 59.9362 2.63601 59.8494 2.48987C59.3554 2.92287 58.8656 3.39051 58.3889 3.86248L58.6273 4.23053C59.0607 3.79753 59.494 3.36453 59.9621 2.97483Z" fill="#47B3E6"></path>
<path d="M43.6064 3.76257C40.5934 8.05583 38.2021 12.7526 36.5033 17.7138C36.4426 17.9866 36.3776 18.2551 36.3213 18.5279C38.0278 13.293 40.5002 8.33917 43.6584 3.82752C43.6434 3.80275 43.626 3.77954 43.6064 3.75824" fill="#47B3E6"></path>
<path d="M54.2111 30.1326C54.5332 29.907 54.8428 29.6642 55.1385 29.4051C55.1305 29.0891 55.103 28.7738 55.0561 28.4612C55.2728 28.2144 55.4289 27.9935 55.5589 27.8506C55.6109 27.6385 55.6542 27.4176 55.7062 27.2185C56.7632 23.1015 58.5654 19.2126 61.0238 15.744L60.508 14.9819C57.8956 18.6021 55.9847 22.679 54.8741 27.002C54.6112 28.0412 54.3931 29.0847 54.2197 30.1326" fill="#47B3E6"></path>
<path d="M52.7939 27.8375C52.6206 28.6472 52.5642 28.946 52.5296 29.1365C52.6735 29.3209 52.7809 29.5311 52.8459 29.7557C52.8459 29.799 52.5079 30.1238 52.4126 30.219C52.4472 30.5784 52.4386 30.6087 52.4472 30.8555C52.3825 30.9761 52.2991 31.0857 52.2002 31.1803C52.1655 31.4228 52.1395 31.6609 52.1135 31.9034C52.1403 32.1382 52.2335 32.3605 52.3822 32.5442C52.4628 32.4289 52.5527 32.3203 52.6509 32.2195C52.7549 32.1849 52.8503 32.2498 52.9456 32.2498C53.6398 25.4843 56.1891 19.0415 60.313 13.6308L60.1917 12.4617L60.1657 12.4054C56.826 16.5671 54.4133 21.3927 53.0886 26.5602C52.9803 26.9932 52.8806 27.4262 52.7853 27.8592" fill="#47B3E6"></path>
<path d="M53.1278 45.4259C53.3064 45.2498 53.4945 45.0836 53.6912 44.928C53.7694 44.9559 53.8437 44.9937 53.9122 45.0406C52.9357 41.2253 52.5815 37.2775 52.8635 33.3495C52.8201 33.3842 52.6294 33.4058 52.5904 33.4405C52.5003 33.7075 52.3917 33.9679 52.2654 34.2199C52.1559 34.1816 52.0501 34.1338 51.949 34.077C51.7571 37.8975 52.1517 41.7248 53.1192 45.4259" fill="#47B3E6"></path>
<path d="M57.9078 52.2587C58.1671 52.31 58.429 52.3476 58.6922 52.3713C58.5275 52.0552 58.3715 51.7304 58.2112 51.41C58.1259 51.4391 58.0391 51.4637 57.9512 51.4836C57.8385 51.4447 57.7865 51.436 57.6521 51.4014C57.5178 51.4663 57.3358 51.5659 57.3228 51.5659C57.4051 51.7348 57.4874 51.9036 57.5741 52.0725C57.6991 52.1058 57.8139 52.1698 57.9078 52.2587Z" fill="#47B3E6"></path>
<path d="M58.3456 22.9101C58.3803 22.9361 58.3803 22.9794 58.4626 23.1699C58.5611 23.0961 58.6499 23.0103 58.727 22.9145C58.7401 22.7026 58.8221 22.5008 58.9606 22.3398C59.0991 22.1788 59.2864 22.0674 59.494 22.0225C60.125 20.6581 60.849 19.3387 61.6609 18.0735C61.5246 17.8597 61.4058 17.6353 61.3056 17.4024C61.7129 16.8784 62.142 16.3329 62.2763 16.1726C62.48 16.0947 62.5927 16.0601 62.7097 16.0124C62.7097 16.0124 62.6664 15.8176 62.649 15.6097C62.5231 15.6369 62.3958 15.6571 62.2677 15.6704C60.6105 17.9098 59.2351 20.3442 58.1722 22.9188H58.3673" fill="#47B3E6"></path>
<path d="M67.4941 58.4723C66.974 57.9223 67.1343 58.0912 66.9437 57.9007C66.805 58.2558 67.0087 58.6541 66.9437 59.0178C71.7685 63.7474 77.9464 66.8602 84.6212 67.9247V66.8292C78.2882 65.7831 72.4261 62.8297 67.8191 58.364C67.7801 58.364 67.5331 58.4549 67.5027 58.4723" fill="#47B3E6"></path>
<path d="M62.2373 52.6443C62.5277 52.6702 62.7054 52.7135 62.9741 52.7309C63.0137 52.6552 63.0484 52.5771 63.0781 52.497L62.948 52.2805C62.7111 52.1765 62.4822 52.0549 62.2633 51.9168C62.0652 51.5552 61.8887 51.1821 61.7346 50.7997C61.5347 51.0135 61.3748 51.2614 61.2622 51.5315C61.5569 52.0684 61.8646 52.5966 62.1896 53.1206C62.1896 52.9604 62.2156 52.7742 62.2373 52.6443Z" fill="#47B3E6"></path>
<path d="M65.7955 66.5782C65.7565 66.8467 65.7261 67.0112 65.6785 67.31C69.8884 70.5423 74.7109 72.8874 79.8543 74.2034C80.2313 74.303 80.6127 74.3939 80.9897 74.4805H84.6128C83.0659 74.2641 81.5323 73.962 80.019 73.5755C74.8445 72.2509 70.0013 69.8683 65.7955 66.5782Z" fill="#47B3E6"></path>
<path d="M51.2382 30.4053C51.1427 30.2997 51.0367 30.204 50.9219 30.1196C50.7377 30.4021 50.5919 30.7079 50.4885 31.0289C50.4495 31.345 50.4148 31.6654 50.3801 31.9815C50.4581 32.4708 50.4625 32.592 50.5578 33.458C50.4723 33.6521 50.3616 33.8341 50.2285 33.9993C50.0514 37.6353 50.3796 41.2783 51.2036 44.8243C51.4081 44.7322 51.6077 44.6296 51.8016 44.5168C50.7423 39.8824 50.5513 35.092 51.2382 30.388" fill="#47B3E6"></path>
<path d="M65.2883 68.5006C65.3923 68.6781 65.6437 69.0981 65.7217 69.2584C65.6437 69.3709 65.6437 69.3969 65.557 69.5138C68.3995 71.5519 71.4897 73.2207 74.7533 74.4803H76.7079C72.6136 73.1054 68.7657 71.0852 65.31 68.4963" fill="#47B3E6"></path>
<path d="M69.0849 2.58069C69.1629 2.45945 69.1975 2.38151 69.2235 2.34254C69.2495 2.30357 69.2495 2.21264 69.2539 2.19965C67.9748 2.97203 66.7406 3.8163 65.5572 4.72837C65.5278 4.87558 65.4873 5.02034 65.4358 5.16137C65.3841 5.32954 65.3606 5.50513 65.3665 5.68097C66.7678 4.57349 68.2417 3.5609 69.7783 2.64997C69.5312 2.611 69.3015 2.64997 69.0849 2.58502" fill="#47B3E6"></path>
<path d="M58.311 13.0636C58.6231 12.6306 58.9438 12.2193 59.2731 11.8036C59.2363 11.684 59.1885 11.568 59.1301 11.4572L58.8094 11.5135C58.7982 11.4693 58.7895 11.4245 58.7834 11.3793L58.4064 11.8599C58.4064 12.0591 58.3717 12.4098 58.311 13.0636Z" fill="#47B3E6"></path>
<path d="M47.9532 27.3485C48.4659 24.8576 49.1997 22.4174 50.1461 20.0568C50.0724 19.7407 50.0118 19.5198 49.9598 19.364C48.8301 22.0759 47.982 24.8965 47.4288 27.7815C47.5805 27.6386 47.8622 27.4567 47.9532 27.3485Z" fill="#47B3E6"></path>
<path d="M58.6663 9.17523L58.571 9.21853C58.571 9.21853 58.5017 9.54328 58.428 9.93731C58.5537 9.78576 58.6923 9.63854 58.8223 9.50431C58.8319 9.442 58.8221 9.37825 58.7942 9.32171C58.7663 9.26517 58.7216 9.21857 58.6663 9.18822" fill="#47B3E6"></path>
<path d="M51.6762 27.9371C51.7946 27.3829 51.9246 26.8286 52.0662 26.2744C53.2583 21.6572 55.2947 17.3001 58.0728 13.4229H57.8778C57.7045 13.6005 57.5094 13.7693 57.3318 13.9382C57.3318 13.7087 57.3058 13.6005 57.3058 13.3753C55.5538 15.8708 54.0994 18.562 52.972 21.3945C52.972 21.9314 53.0066 22.1609 53.037 22.8753C52.8896 22.845 52.7293 22.7931 52.4779 22.7238C52.6556 23.0918 52.8766 23.4469 52.6773 23.8972L52.4909 23.7976L52.3652 23.9665C52.2745 23.8802 52.2035 23.7754 52.1572 23.6591C51.8929 24.4644 51.6545 25.2785 51.4378 26.1098C51.3685 26.3783 51.3035 26.6468 51.2428 26.9152C51.3265 26.948 51.4077 26.9871 51.4855 27.0321C51.4595 27.3396 51.3901 27.7769 51.3685 27.9501C51.4723 27.9586 51.5767 27.9586 51.6805 27.9501" fill="#47B3E6"></path>
<path d="M53.1019 1.92694C53.1019 1.82302 53.1019 1.7191 53.1019 1.62817H52.9329C52.6035 1.97457 52.2944 2.32242 52.0054 2.6717C51.9621 2.87955 51.9231 3.10471 51.8884 3.29956C52.29 2.8348 52.7017 2.37726 53.1236 1.92694" fill="#47B3E6"></path>
<path d="M46.7009 3.84496C47.1603 3.25608 47.6283 2.63689 48.105 2.05234C48.0462 2.0356 47.9906 2.00927 47.9403 1.9744C47.9361 1.93699 47.9361 1.89922 47.9403 1.86182C47.468 2.43771 47.0042 3.01793 46.5579 3.61547C46.5596 3.67517 46.5728 3.73399 46.5969 3.78867C46.6315 3.79671 46.6621 3.81663 46.6835 3.84496" fill="#47B3E6"></path>
<path d="M46.315 4.35594L46.25 4.26068C45.9545 4.56432 45.7387 4.93616 45.6216 5.34318C45.8513 5.0141 46.055 4.68069 46.315 4.35594Z" fill="#47B3E6"></path>
<path d="M44.8153 6.52981C44.863 6.30465 44.915 6.09681 44.9583 5.88464C44.5943 6.42734 44.2418 6.97436 43.9009 7.52572C43.9009 7.63397 43.9009 7.84614 43.9009 7.95872C44.1999 7.46943 44.5119 6.9888 44.8283 6.51249" fill="#47B3E6"></path>
<path d="M48.2131 1.92681L48.6465 1.42886C48.5557 1.41971 48.4643 1.41971 48.3735 1.42886C48.3475 1.56742 48.2435 1.91382 48.2305 1.94413" fill="#47B3E6"></path>
<path d="M45.071 1.93117C45.4741 1.40291 45.8901 0.883312 46.3105 0.368042H46.1978C45.8121 0.844342 45.4264 1.32497 45.0537 1.81426C45.0537 1.86189 45.0537 1.88354 45.0537 1.93117" fill="#47B3E6"></path>
<path d="M55.8625 6.52972C55.6284 6.79385 55.4031 7.06231 55.1777 7.33078C55.1965 7.35226 55.2199 7.36925 55.2462 7.38049C55.2724 7.39174 55.3009 7.39694 55.3294 7.39572C55.3698 7.39816 55.4103 7.39816 55.4508 7.39572C55.6108 7.1151 55.7555 6.82601 55.8841 6.52972" fill="#47B3E6"></path>
<path d="M52.8936 10.5175C52.818 10.5481 52.7455 10.5858 52.677 10.6301L52.5426 10.8249C52.5426 10.8249 52.5773 11.1323 52.6206 11.4225C52.6206 11.4225 52.6509 11.4225 52.6639 11.4225C52.9818 10.9519 53.3068 10.4843 53.639 10.0195C53.5548 10.0532 53.4654 10.0722 53.3747 10.0758C53.2495 10.2502 53.0903 10.3975 52.9066 10.5088L52.8936 10.5175Z" fill="#47B3E6"></path>
<path d="M56.6253 5.67241L56.2959 6.04479C56.4086 6.12273 56.4736 6.4215 56.4736 6.42583C56.4757 6.44887 56.4757 6.47207 56.4736 6.49511C56.6296 6.31758 56.7856 6.14005 56.946 5.96685C57.1063 5.79365 57.3793 5.49921 57.6004 5.26972L57.3577 4.89734C57.1107 5.15281 56.868 5.41261 56.6253 5.67241Z" fill="#47B3E6"></path>
<path d="M48.9326 18.2466V18.2206C48.7376 18.3679 48.7029 18.3895 48.4429 18.8918C48.3705 18.8716 48.2966 18.8571 48.2219 18.8485C47.3545 20.9469 46.6475 23.108 46.107 25.3132C46.1419 25.5442 46.1651 25.7769 46.1763 26.0103C46.0941 26.0423 46.0102 26.0697 45.925 26.0926C43.4049 37.3247 45.296 49.0948 51.2079 58.9746C51.3858 59.0321 51.5549 59.1137 51.7106 59.2171C51.742 59.1876 51.7753 59.1601 51.8103 59.1349C48.0822 53.0498 45.8762 46.1569 45.3791 39.0396C44.8819 31.9223 46.1083 24.7901 48.9543 18.2466" fill="#47B3E6"></path>
<path d="M58.0378 4.38616C58.042 4.32995 58.042 4.27349 58.0378 4.21729L57.5264 4.73689C57.6563 4.84678 57.8025 4.93588 57.9597 5.00102C57.9381 4.77586 57.8991 4.75854 57.9207 4.65029C57.9424 4.54204 58.0117 4.46843 58.0594 4.38616" fill="#47B3E6"></path>
<path d="M44.7288 25.075C44.6391 24.9548 44.5622 24.8257 44.4992 24.6896C44.4709 24.6151 44.4492 24.5384 44.4341 24.4601C41.5523 35.6654 42.9731 47.5425 48.4169 57.7535C48.9283 58.2169 49.0886 58.3338 49.2273 58.3381C43.5783 48.2155 41.9712 36.3325 44.7288 25.075Z" fill="#47B3E6"></path>
<path d="M49.106 0.883312C49.2577 0.710112 49.4093 0.536912 49.5654 0.368042H49.262C49.1146 0.532582 48.9586 0.697122 48.8286 0.865992H49.119" fill="#47B3E6"></path>
<path d="M53.5439 12.596C53.6239 12.7923 53.6609 13.0035 53.6522 13.2152C54.311 12.1818 55.0145 11.1715 55.7628 10.1842C55.7281 10.076 55.4811 9.87681 55.4767 9.8465C54.792 10.7356 54.1463 11.6478 53.5396 12.5831" fill="#47B3E6"></path>
<path d="M56.6988 9.0152C56.9675 8.69045 57.2362 8.3657 57.5136 8.04961L57.4789 7.99332C57.4529 7.95868 57.3792 7.95868 57.3315 7.96734C57.3049 7.96064 57.2789 7.95195 57.2535 7.94136C57.2157 7.90072 57.1809 7.85729 57.1495 7.81146C56.8462 8.15786 56.5515 8.50859 56.2611 8.86365C56.4258 8.86365 56.6035 8.8853 56.6945 9.0152" fill="#47B3E6"></path>
<path d="M57.8646 7.65982C58.116 7.37837 58.376 7.09692 58.6361 6.79382C58.6361 6.79382 58.6144 6.75485 58.6014 6.72887C58.5315 6.62979 58.4395 6.54827 58.3327 6.49072C58.0423 6.79815 57.7563 7.10991 57.4659 7.42167C57.5999 7.48658 57.7301 7.55886 57.856 7.63817" fill="#47B3E6"></path>
<path d="M59.3207 5.49474C59.4399 5.58702 59.5711 5.66276 59.7107 5.7199L60.0618 5.37783C60.0618 5.33453 60.1788 5.04875 60.1788 5.04442C60.1051 4.96215 60.0531 4.9838 59.9577 4.87555C59.7454 5.08339 59.5244 5.2869 59.3207 5.49474Z" fill="#47B3E6"></path>
<path d="M46.8655 31.5703C46.2777 37.2521 46.8347 42.9941 48.5036 48.4573C48.5426 48.1748 48.6079 47.8964 48.6986 47.626C47.2142 42.4236 46.7391 36.9856 47.2988 31.605C47.4115 30.4849 47.5704 29.3736 47.7756 28.2709C47.6897 28.1219 47.555 28.0071 47.3942 27.9461C47.1732 29.1369 46.9911 30.3449 46.8655 31.5617" fill="#47B3E6"></path>
<path d="M51.8231 56.3897C52.2998 57.2557 52.804 58.1217 53.3356 58.9877C53.5632 59.122 53.7656 59.2949 53.9337 59.4986C54.2259 60.1005 54.5944 60.6622 55.0301 61.17C55.1101 61.1189 55.1686 61.0404 55.1948 60.9492C54.1487 59.5104 53.1934 58.0079 52.3345 56.4503C52.1482 56.4503 51.9791 56.42 51.8231 56.4027" fill="#47B3E6"></path>
<path d="M64.777 1.21672C64.7815 1.25846 64.7815 1.30056 64.777 1.34229C64.777 1.3726 64.777 1.4159 64.777 1.44621C65.2884 1.07383 65.8041 0.714442 66.3242 0.368042H65.5397C65.167 0.623512 64.7987 0.887643 64.4303 1.1561C64.4823 1.21239 64.4693 1.29899 64.53 1.35095C64.6166 1.31198 64.6947 1.25136 64.7857 1.21672" fill="#47B3E6"></path>
<path d="M44.8459 23.3128C44.7857 23.4624 44.735 23.6157 44.6942 23.7718C44.6942 23.8844 44.8026 24.2438 44.8676 24.5036C44.8656 24.4805 44.8656 24.4573 44.8676 24.4343C44.9282 24.2005 44.9976 23.9753 45.0583 23.7458C44.9914 23.5965 44.9147 23.4519 44.8286 23.3128" fill="#47B3E6"></path>
<path d="M48.1916 4.90154C48.4993 4.46854 48.807 4.08317 49.1277 3.68048C49.1917 3.5048 49.2452 3.32552 49.2881 3.14355C48.9023 3.61553 48.521 4.09616 48.1526 4.58545C48.076 4.68707 48.012 4.79757 47.9619 4.91453C48.0382 4.92289 48.1153 4.92289 48.1916 4.91453" fill="#47B3E6"></path>
<path d="M50.5015 1.70618C50.1981 2.05258 49.8991 2.40764 49.6044 2.7627C49.581 2.92941 49.5463 3.09434 49.5004 3.25632C49.8081 2.87528 50.1201 2.49857 50.4408 2.13052C50.4408 2.01794 50.4755 1.88371 50.5015 1.72783" fill="#47B3E6"></path>
<path d="M40.5728 46.0974C40.6682 46.0671 40.6552 46.0498 40.7289 46.0325C39.2688 38.8217 39.4093 31.3787 41.1405 24.2281C42.8717 17.0775 46.1514 10.3932 50.7486 4.6463C50.8482 4.33887 50.9739 4.0401 51.0693 3.737C50.2372 4.7329 49.4455 5.75911 48.6944 6.81563C48.6323 7.01776 48.551 7.2135 48.4517 7.40018C48.4517 7.40018 48.4213 7.37853 48.365 7.2876C44.2699 13.2218 41.4894 19.9609 40.2092 27.0545C38.9289 34.1481 39.1785 41.4331 40.9412 48.4226C41.0712 48.7301 41.1492 48.886 41.2619 49.1977C41.2619 49.2367 41.2619 49.3449 41.2186 49.4618L41.4136 50.1503C41.5306 50.2845 41.6953 50.4491 41.912 50.6526C41.6433 49.7866 41.4006 48.9206 41.1839 48.0546C40.8719 47.1496 40.8372 46.9331 40.5728 46.1234" fill="#47B3E6"></path>
<path d="M53.0498 4.23468C52.6814 4.66768 52.326 5.10068 51.975 5.53368C52.0108 5.68095 52.0211 5.83327 52.0053 5.984C52.209 5.73286 52.4084 5.48172 52.6164 5.23058C52.7334 4.97511 52.8851 4.61572 53.0498 4.23468Z" fill="#47B3E6"></path>
<path d="M43.7324 11.9768C43.8624 11.73 43.9881 11.4789 44.1224 11.2321C44.0752 11.1438 44.0416 11.0489 44.0227 10.9506C43.8667 11.2321 43.715 11.5179 43.5894 11.8166C43.6195 11.8115 43.6502 11.8115 43.6804 11.8166C43.7064 11.8902 43.7324 11.9465 43.754 11.9942" fill="#47B3E6"></path>
<path d="M39.4719 23.04C40.29 19.8795 41.4043 16.8032 42.8002 13.8517C42.8002 13.8517 42.8002 13.8257 42.8002 13.8214L42.6225 13.7131C38.8194 21.748 37.138 30.6218 37.7384 39.4896C37.7774 39.5329 37.8554 39.5719 37.8554 39.6239C37.8554 39.9226 37.8554 40.2171 37.8164 40.5115C37.8684 41.0918 37.929 41.6676 37.9984 42.2435L38.2974 42.8584C37.4027 36.2385 37.8016 29.5081 39.4719 23.04Z" fill="#47B3E6"></path>
<path d="M64.9545 3.25639C64.8939 3.44258 64.8505 3.52052 64.6902 3.91888C66.1178 2.79361 67.6192 1.7651 69.1843 0.84025C69.4617 0.67571 69.7434 0.515499 70.0251 0.359619H68.7249C67.4261 1.1376 66.169 1.98311 64.9589 2.89267C64.9702 3.01365 64.9702 3.13541 64.9589 3.25639" fill="#47B3E6"></path>
<path d="M36.5899 26.7162C36.5292 27.0583 36.4729 27.396 36.4209 27.7381C36.4469 27.7944 36.5249 28.0629 36.5726 28.1711C36.6376 27.7381 36.7113 27.2791 36.7893 26.8331C36.7471 26.8284 36.7069 26.8132 36.6721 26.789C36.6373 26.7648 36.609 26.7324 36.5899 26.6946" fill="#47B3E6"></path>
<path d="M51.0908 6.63794C50.8871 6.9064 50.6878 7.17919 50.4884 7.44765C50.5881 7.41301 50.7484 7.36538 50.9565 7.30909C51.0191 7.08932 51.064 6.86489 51.0908 6.63794Z" fill="#47B3E6"></path>
<path d="M50.8048 10.2534L51.0042 10.2274C51.1298 10.0325 51.3032 9.79439 51.5155 9.51727C51.5714 9.53051 51.6253 9.55088 51.6759 9.57789L51.7322 9.53892C51.9706 9.19685 52.2046 8.85911 52.4516 8.5257C52.4055 8.48917 52.3499 8.46663 52.2913 8.46075C52.2913 8.40013 52.2913 8.31353 52.2913 8.24858C52.2577 8.22006 52.2272 8.18813 52.2003 8.15332C51.7265 8.79127 51.27 9.43789 50.8308 10.0932C50.8355 10.1465 50.8355 10.2001 50.8308 10.2534" fill="#47B3E6"></path>
<path d="M51.6584 6.36519C51.6584 6.38684 51.7667 5.93219 51.8231 5.70703C51.6974 5.85858 51.5761 6.01446 51.4547 6.17034C51.5241 6.23962 51.5934 6.3089 51.6584 6.36519Z" fill="#47B3E6"></path>
<path d="M56.2045 3.68926C55.8665 4.12226 55.5848 4.48165 55.2554 4.85403C55.2554 4.94063 55.2554 4.91032 55.1558 5.22641C56.1525 4.11216 57.1984 3.04986 58.2934 2.03953C58.1894 1.862 58.2934 1.66715 58.2544 1.48096C57.5841 2.08716 56.9297 2.71212 56.2912 3.35585C56.2522 3.49874 56.2435 3.57235 56.2045 3.67627" fill="#47B3E6"></path>
<path d="M43.0647 23.9667C44.5412 18.1888 47.0855 12.7376 50.5664 7.89368C50.3844 8.00193 50.4364 7.9976 49.9987 8.3007L49.9294 8.23575C45.6414 14.3866 42.8388 21.4468 41.7418 28.862C40.6447 36.2772 41.2829 43.8456 43.6064 50.9729C43.7624 51.3366 43.9011 51.7003 43.9011 51.7047C44.0552 51.7597 44.1915 51.8555 44.2955 51.9818C41.0842 42.9777 40.6554 33.2172 43.0647 23.9667Z" fill="#47B3E6"></path>
<path d="M36.7854 0.368042H34.4971C27.3671 11.5123 23.7647 24.5449 24.1597 37.7656C24.5548 50.9863 28.929 63.781 36.7117 74.4804H39.0043C30.9972 63.8781 26.4832 51.0531 26.0857 37.7772C25.6882 24.5012 29.427 11.4295 36.7854 0.368042Z" fill="#00A4E1"></path>
<path d="M27.3636 35.8048C27.3456 23.149 31.1868 10.7881 38.3757 0.368042H36.7852C29.4268 11.4295 25.6881 24.5012 26.0856 37.7772C26.4831 51.0531 30.9971 63.8781 39.0041 74.4804H40.651C32.0178 63.4358 27.3395 49.8185 27.3636 35.8048Z" fill="white"></path>
</g>
<g id="logo-text">
<path d="M96.2922 29.9592H105.601L105.042 31.7172H98.3248V36.294H104.483V38.0779H98.3248V43.1094H105.064L105.666 44.889H96.2922V29.9592Z"></path>
<path d="M117.064 29.9548H118.889L125.42 44.889H123.348L121.749 41.2864H114.204L112.609 44.889H110.511L117.064 29.9548ZM117.978 32.6307L114.992 39.4418H120.943L117.978 32.6307Z"></path>
<path d="M130.447 29.9548H136.791C139.509 29.9548 141.454 31.6868 141.454 34.038C141.454 36.203 140.375 37.2898 138.304 37.87L142.035 44.889H139.838L136.232 38.1775H132.501V44.889H130.447V29.9548ZM132.501 31.6868V36.4195H136.401C138.265 36.4195 139.283 35.5924 139.283 34.038C139.283 32.4835 138.265 31.6954 136.25 31.6954L132.501 31.6868Z"></path>
<path d="M146.586 29.9592H158.733V31.7605H153.676V44.889H151.643V31.7605H146.586V29.9592Z"></path>
<path d="M164.289 29.9592H166.339V36.294H173.785V29.9592H175.834V44.889H173.785V38.1169H166.339V44.889H164.289V29.9592Z"></path>
<path d="M96.2316 59.5461H104.44L104.275 60.477H97.2283V66.3572H103.343V67.2925H97.2283V74.4759H96.2316V59.5461Z"></path>
<path d="M109.956 59.5461H110.971V69.4705C110.971 72.5015 112.609 74.0862 115.798 74.0862C118.663 74.0862 120.214 72.4711 120.214 69.5311V59.5461H121.211V69.4055C121.211 73.0514 119.244 74.9999 115.551 74.9999C112.05 74.9999 109.956 72.9301 109.956 69.4705V59.5461Z"></path>
<path d="M127.946 59.5461H129.359L138.065 73.1336V59.5461H139.08V74.4759H137.814L128.943 60.6632V74.4759H127.946V59.5461Z"></path>
<path d="M145.962 59.5461H151.102C155.145 59.5461 157.754 62.5771 157.754 67.2968C157.754 69.5917 157.074 71.4146 155.743 72.7223C154.482 73.9433 152.905 74.4803 150.46 74.4803H145.962V59.5461ZM146.976 60.4381V73.5493H150.582C152.696 73.5493 154.005 73.0947 155.063 72.0165C156.12 70.9383 156.718 69.202 156.718 67.1929C156.718 65.0279 156.077 63.1097 154.959 61.9969C153.94 60.962 152.532 60.4424 150.664 60.4424L146.976 60.4381Z"></path>
<path d="M96.6433 0.372437H102.056C105.06 0.372437 106.862 1.67144 106.862 3.81046C106.862 6.27423 104.604 6.91507 103.361 7.27446C104.136 7.37682 104.891 7.60038 105.597 7.93695C106.183 8.24352 106.673 8.70563 107.013 9.27246C107.354 9.83929 107.531 10.4889 107.525 11.1498C107.525 12.5181 106.719 15.2936 102.572 15.2936H96.6433V0.372437ZM97.6401 1.19947V6.85445H101.389C104.024 6.85445 105.87 5.65071 105.87 3.91438C105.87 2.17805 104.418 1.19947 102.035 1.19947H97.6401ZM97.6401 7.69447V14.4536H102.451C104.856 14.4536 106.472 13.1546 106.472 11.1845C106.472 8.98914 104.483 7.72045 101.124 7.72045L97.6401 7.69447Z"></path>
<path d="M113.354 0.372437H122.208L121.77 1.30339H114.351V7.16621H120.899V8.09717H114.351V14.3713H121.978L122.33 15.3066H113.354V0.372437Z"></path>
<path d="M127.097 0.372437H136.943L128.466 14.4146H137.381V15.3066H126.85L135.305 1.28174H127.097V0.372437Z"></path>
<path d="M141.836 7.88927C141.836 3.26915 144.549 0 148.427 0C152.306 0 155.019 3.2908 155.019 8.01917C155.019 12.5354 152.241 15.8132 148.427 15.8132C144.614 15.8132 141.836 12.5007 141.836 7.90226M153.97 8.08845C153.97 3.75844 151.773 0.943941 148.336 0.943941C145.06 0.943941 142.885 3.74112 142.885 7.87195C142.885 12.0028 145.142 14.8952 148.336 14.8952C153.186 14.8952 153.97 9.77715 153.97 8.07979"></path>
<path d="M165.758 6.75051C162.725 5.67234 161.754 4.90593 161.754 3.62425C161.754 1.96585 163.145 0.909332 165.342 0.909332C167.54 0.909332 168.71 2.45514 169.243 3.36011L170.11 2.69329C169.243 1.53718 168.077 0.0390015 165.251 0.0390015C162.426 0.0390015 160.697 1.38563 160.697 3.58095C160.697 6.12699 163.297 7.04495 165.299 7.74641C167.622 8.55179 169.715 9.50439 169.715 11.4919C169.715 13.4793 167.982 14.826 165.507 14.826C162.109 14.826 161.052 12.4271 160.636 11.2884L159.769 11.9508C160.218 13.084 160.998 14.0557 162.007 14.7392C163.017 15.4228 164.209 15.7865 165.429 15.7829C168.601 15.7829 170.777 13.9989 170.777 11.3706C170.777 8.8419 168.61 7.78538 165.741 6.75051"></path>
</g>
<defs>
<radialGradient cx="0" cy="0" gradientTransform="translate(88.6443 35.1731) rotate(180) scale(76.3439 76.2774)" gradientUnits="userSpaceOnUse" id="paint0_radial_85_191" r="1">
<stop stop-color="#008ED3"></stop>
<stop offset="0.79" stop-color="#008ED3"></stop>
<stop offset="0.82" stop-color="#008BD0"></stop>
<stop offset="0.84" stop-color="#0082C6"></stop>
<stop offset="0.86" stop-color="#0074B5"></stop>
<stop offset="0.88" stop-color="#005F9E"></stop>
<stop offset="0.89" stop-color="#005997"></stop>
<stop offset="0.96" stop-color="#00264A"></stop>
<stop offset="0.97" stop-color="#002041"></stop>
<stop offset="1" stop-color="#002041"></stop>
</radialGradient>
<radialGradient cx="0" cy="0" gradientTransform="translate(90.1096 35.0168) rotate(180) scale(63.0175 62.9626)" gradientUnits="userSpaceOnUse" id="paint1_radial_85_191" r="1">
<stop stop-color="#0062AB"></stop>
<stop offset="0.36" stop-color="#0062AB"></stop>
<stop offset="0.46" stop-color="#005698"></stop>
<stop offset="0.65" stop-color="#003766"></stop>
<stop offset="0.77" stop-color="#002041"></stop>
<stop offset="0.8" stop-color="#072342"></stop>
<stop offset="0.83" stop-color="#1A2C45"></stop>
<stop offset="0.87" stop-color="#393B49"></stop>
<stop offset="0.91" stop-color="#654F50"></stop>
<stop offset="0.95" stop-color="#9C6958"></stop>
<stop offset="1" stop-color="#B27865"></stop>
</radialGradient>
</defs>
</svg>